# xmcd
#
# Track frame offsets: 
#        150
#        13776
#        29049
#        48816
#        66219
#        81266
#        96891
#        114824
#        134926
#        157291
#        177599
#
# Disc length: 2630 seconds
#
# Revision: 0
# Processed by: cddbd v1.5.2PL0 Copyright (c) Steve Scherf et al.
# Submitted via: ExactAudioCopy v1.3
#
DISCID=9d0a440b
DTITLE=Fenton Robinson - Somebody Loan Me A Dime
DYEAR=1974
DGENRE=Chicago Blues
TTITLE0=Somebody Loan Me A Dime
TTITLE1=The Getaway
TTITLE2=Directly From My Heart To You
TTITLE3=Going To Chicago
TTITLE4=You Say You're Leaving
TTITLE5=Checking On My Woman
TTITLE6=You Don't Know What Love Is
TTITLE7=I've Changed
TTITLE8=Country Girl
TTITLE9=Gotta Wake Up
TTITLE10=Texas Flood
EXTD=
EXTT0=
EXTT1=
EXTT2=
EXTT3=
EXTT4=
EXTT5=
EXTT6=
EXTT7=
EXTT8=
EXTT9=
EXTT10=
PLAYORDER=
